<svg width="27" height="23" viewBox="0 0 27 23" fill="none" xmlns="http://www.w3.org/2000/svg">
    <path d="M26.839 11.5C26.839 11.79 26.7232 12.0682 26.517 12.2734C26.3109 12.4785 26.0313 12.5937 25.7397 12.5937H4.21017L12.2268 20.5703C12.3289 20.6719 12.4099 20.7924 12.4651 20.9251C12.5204 21.0578 12.5488 21.2001 12.5488 21.3437C12.5488 21.4874 12.5204 21.6296 12.4651 21.7623C12.4099 21.895 12.3289 22.0156 12.2268 22.1171C12.1248 22.2187 12.0036 22.2993 11.8702 22.3542C11.7368 22.4092 11.5939 22.4375 11.4495 22.4375C11.3052 22.4375 11.1622 22.4092 11.0289 22.3542C10.8955 22.2993 10.7743 22.2187 10.6722 22.1171L0.779013 12.2734C0.676932 12.1718 0.595958 12.0512 0.540712 11.9185C0.485466 11.7858 0.457031 11.6436 0.457031 11.5C0.457031 11.3563 0.485466 11.2141 0.540712 11.0814C0.595958 10.9487 0.676932 10.8281 0.779013 10.7265L10.6722 0.882799C10.8784 0.677676 11.158 0.562439 11.4495 0.562439C11.7411 0.562439 12.0207 0.677676 12.2268 0.882799C12.433 1.08792 12.5488 1.36613 12.5488 1.65622C12.5488 1.94631 12.433 2.22451 12.2268 2.42964L4.21017 10.4062H25.7397C26.0313 10.4062 26.3109 10.5215 26.517 10.7266C26.7232 10.9317 26.839 11.2099 26.839 11.5Z"
          fill="white"/>
</svg>