<svg width="35" height="35" viewBox="0 0 35 35" fill="none" xmlns="http://www.w3.org/2000/svg">
    <path
            d="M17.5 0C14.0388 0 10.6554 1.02636 7.77753 2.94928C4.89967 4.87221 2.65665 7.60533 1.33212 10.803C0.0075822 14.0007 -0.338976 17.5194 0.336266 20.9141C1.01151 24.3087 2.67822 27.4269 5.12564 29.8744C7.57306 32.3218 10.6913 33.9885 14.0859 34.6637C17.4806 35.339 20.9993 34.9924 24.197 33.6679C27.3947 32.3434 30.1278 30.1003 32.0507 27.2225C33.9736 24.3446 35 20.9612 35 17.5C34.9948 12.8603 33.1493 8.41216 29.8686 5.13141C26.5878 1.85066 22.1397 0.00523397 17.5 0ZM17.5 33.6C14.3157 33.6 11.203 32.6557 8.55533 30.8867C5.90769 29.1176 3.84412 26.6031 2.62555 23.6612C1.40698 20.7193 1.08814 17.4821 1.70936 14.359C2.33059 11.2359 3.86396 8.3672 6.11559 6.11558C8.36721 3.86395 11.236 2.33058 14.3591 1.70936C17.4821 1.08813 20.7193 1.40697 23.6612 2.62554C26.6031 3.84411 29.1176 5.90769 30.8867 8.55532C32.6558 11.2029 33.6 14.3157 33.6 17.5C33.5952 21.7685 31.8974 25.8608 28.8791 28.8791C25.8608 31.8974 21.7685 33.5952 17.5 33.6ZM25.2 17.5C25.2 17.6856 25.1263 17.8637 24.995 17.995C24.8637 18.1262 24.6857 18.2 24.5 18.2H12.19L16.9348 22.9448C17.066 23.076 17.1398 23.2541 17.1398 23.4398C17.1398 23.6254 17.066 23.8035 16.9348 23.9347C16.8035 24.066 16.6254 24.1398 16.4398 24.1398C16.2541 24.1398 16.0761 24.066 15.9448 23.9347L10.0051 17.9949C9.94011 17.9299 9.88855 17.8528 9.85337 17.7678C9.81819 17.6829 9.80008 17.5919 9.80008 17.5C9.80008 17.4081 9.81819 17.3171 9.85337 17.2322C9.88855 17.1472 9.94011 17.0701 10.0051 17.0051L15.9446 11.0652C16.0759 10.9339 16.2539 10.8602 16.4396 10.8602C16.6253 10.8601 16.8034 10.9339 16.9347 11.0652C17.066 11.1964 17.1397 11.3745 17.1398 11.5602C17.1398 11.7458 17.066 11.9239 16.9348 12.0552L12.19 16.8H24.5C24.6857 16.8 24.8637 16.8737 24.995 17.005C25.1263 17.1363 25.2 17.3143 25.2 17.5Z"
            fill="#0A005A"/>
</svg>