<svg width="35" height="35" viewBox="0 0 35 35" fill="none" xmlns="http://www.w3.org/2000/svg">
    <path fill-rule="evenodd" clip-rule="evenodd"
          d="M15.8291 0.0418631C11.745 0.461079 8.02854 2.22164 5.13952 5.10579C-0.153944 10.3903 -1.5046 18.4207 1.77113 25.133C2.69076 27.0174 3.59945 28.2809 5.15928 29.8441C6.28242 30.9697 7.07827 31.6156 8.24914 32.3521C12.5547 35.0601 17.9482 35.7344 22.8247 34.1743C25.7745 33.2306 28.2873 31.6117 30.4437 29.2659C31.5829 28.0266 32.413 26.7932 33.2347 25.1188C34.3368 22.8733 34.8917 20.6527 34.9875 18.1045C35.1705 13.242 33.3331 8.57503 29.8676 5.0999C27.1806 2.40531 23.7763 0.703877 19.9321 0.134315C19.0959 0.0103843 16.6686 -0.0442931 15.8291 0.0418631ZM18.9064 2.09203C24.2729 2.58426 29.0279 5.88037 31.3884 10.7445C31.6451 11.2734 31.9516 11.9832 32.0697 12.322C33.4216 16.2026 33.1971 20.5057 31.4542 24.1153C31.0537 24.9449 30.3875 26.1111 30.3142 26.1111C30.2937 26.1111 29.9803 25.8202 29.6178 25.4647C22.9636 18.9374 12.0633 18.9524 5.35343 25.4981C5.00781 25.8352 4.70986 26.1111 4.69126 26.1111C4.62103 26.1111 3.94643 24.9265 3.55479 24.1153C2.8172 22.5878 2.29058 20.6941 2.12242 18.9651C1.63799 13.9836 3.69956 8.91753 7.52044 5.69998C10.6936 3.02791 14.8277 1.71791 18.9064 2.09203ZM16.2736 4.27208C13.9584 4.78012 12.1805 6.46759 11.5417 8.76349C11.4 9.27277 11.3893 9.45165 11.3893 11.3297C11.3893 13.2078 11.4 13.3866 11.5417 13.8959C12.1633 16.1297 13.8711 17.7961 16.1143 18.3578C16.8196 18.5343 18.3222 18.5145 19.0431 18.319C21.2082 17.7322 22.8591 16.0818 23.4673 13.8959C23.609 13.3866 23.6197 13.2078 23.6197 11.3297C23.6197 9.45165 23.609 9.27277 23.4673 8.76349C22.8578 6.57311 21.188 4.90576 19.0431 4.34584C18.2497 4.1387 17.0296 4.1062 16.2736 4.27208ZM18.4895 6.33244C19.262 6.5302 19.7866 6.83398 20.379 7.42674C20.9713 8.0195 21.2748 8.54451 21.4725 9.31752C21.6704 10.0923 21.6704 12.5671 21.4725 13.3419C21.2778 14.1035 20.9682 14.6379 20.3766 15.2333C19.7873 15.8265 19.267 16.1279 18.4895 16.327C17.5224 16.5744 16.4693 16.445 15.5683 15.9677C15.0088 15.6713 14.179 14.8424 13.8926 14.2938C13.4865 13.5158 13.4015 13.0024 13.4015 11.3297C13.4015 9.65701 13.4865 9.14357 13.8926 8.36563C14.1793 7.81653 15.0088 6.98809 15.5694 6.69116C16.4703 6.21398 17.5218 6.08478 18.4895 6.33244ZM18.98 22.6938C21.9542 22.9834 24.754 24.1138 27.1172 25.9792C27.7602 26.4868 28.993 27.677 28.993 27.7901C28.993 27.9002 27.7748 29.0714 27.1172 29.5936C22.4177 33.3252 15.991 34.0078 10.6547 31.3421C9.70347 30.8669 8.84682 30.3334 8.06779 29.7309C7.34743 29.1737 6.016 27.9139 6.016 27.7893C6.016 27.6759 7.2227 26.513 7.89177 25.9817C11.0277 23.4918 15.0194 22.3081 18.98 22.6938Z"
          fill="#0A005A"/>
</svg>