<svg width="122" height="184" viewBox="0 0 122 184" fill="none" xmlns="http://www.w3.org/2000/svg">
    <path opacity="0.7"
          d="M121.562 40.6172C121.562 59.8066 112.554 80.5342 94.5361 102.8C93.3643 104.411 79.5947 119.572 53.2275 148.283C72.2705 143.742 86.4062 143.303 95.6348 146.965C103.838 150.334 107.939 156.267 107.939 164.763C107.939 176.042 105.449 181.682 100.469 181.682C98.2715 181.682 94.9023 180.51 90.3613 178.166C84.9414 175.383 77.6904 173.991 68.6084 173.991C62.749 173.991 53.3008 175.603 40.2637 178.825L26.8604 182.121C22.7588 183.146 19.9023 183.659 18.291 183.659C6.2793 183.659 0.273438 179.338 0.273438 170.695C0.273438 163.664 5.32715 155.095 15.4346 144.987C22.6123 138.396 33.8184 128.068 49.0527 114.006C81.5723 83.2441 97.832 61.6377 97.832 49.1865C97.832 44.3525 96.001 40.4707 92.3389 37.541C89.2627 34.9043 85.8203 33.5859 82.0117 33.5859C72.9297 33.5859 63.4814 39.2988 53.667 50.7246C52.4951 52.1895 51.8359 52.9219 51.6895 52.9219C48.7598 52.9219 46.1963 50.8711 43.999 46.7695C42.0947 43.2539 41.1426 39.8115 41.1426 36.4424C41.1426 27.5068 45.4639 19.3037 54.1064 11.833C62.8955 4.3623 72.3438 0.626953 82.4512 0.626953C96.3672 0.626953 106.914 6.19336 114.092 17.3262C119.072 24.9434 121.562 32.707 121.562 40.6172Z"
          fill="white"/>
</svg>