<svg width="121" height="185" viewBox="0 0 121 185" fill="none" xmlns="http://www.w3.org/2000/svg">
    <path opacity="0.7"
          d="M120.661 39.3975C120.661 56.6826 108.869 72.6494 85.2852 87.2979C100.08 95.208 107.478 106.634 107.478 121.575C107.478 136.81 100.666 151.019 87.043 164.202C73.127 177.825 57.7461 184.637 40.9004 184.637C27.1309 184.637 16.6572 180.975 9.47949 173.65C3.7666 167.791 0.910156 160.76 0.910156 152.557C0.910156 146.404 3.10742 141.058 7.50195 136.517C11.3105 132.415 14.9727 130.364 18.4883 130.364C21.8574 130.364 23.3955 131.902 23.1025 134.979C22.9561 137.029 22.8828 137.981 22.8828 137.835C22.8828 141.79 25.5928 145.452 31.0127 148.821C35.5537 151.458 39.3623 152.776 42.4385 152.776C51.0811 152.776 59.2109 148.748 66.8281 140.691C74.0059 132.928 77.5947 125.457 77.5947 118.279C77.5947 107.879 72.3213 102.679 61.7744 102.679C59.4307 102.679 56.0615 103.558 51.667 105.315C47.2725 106.927 44.6357 107.732 43.7568 107.732C41.1201 107.732 38.7764 106.414 36.7256 103.777C34.6748 101.141 33.6494 98.4307 33.6494 95.6475C33.6494 91.2529 35.2607 86.9316 38.4834 82.6836C42.292 77.4102 47.2725 74.2607 53.4248 73.2354C62.2139 71.917 70.0508 69.1338 76.9355 64.8857C86.3105 59.3193 90.998 52.4346 90.998 44.2314C90.998 40.5693 89.2402 37.5664 85.7246 35.2227C82.3555 32.8789 79.0596 31.707 75.8369 31.707C71.5889 31.707 67.0479 33.2451 62.2139 36.3213C58.1123 38.958 54.0107 41.668 49.9092 44.4512C47.7119 45.623 45.8809 46.209 44.416 46.209C42.6582 46.209 40.9004 44.5244 39.1426 41.1553C37.3848 37.6396 36.5059 33.6113 36.5059 29.0703C36.5059 22.1855 40.3145 15.7402 47.9316 9.73438C56.1348 3.28906 65.9492 0.0664062 77.375 0.0664062C90.5586 0.0664062 101.032 3.65527 108.796 10.833C116.706 17.8643 120.661 27.3857 120.661 39.3975Z"
          fill="white"/>
</svg>
