<svg width="100" height="180" viewBox="0 0 100 180" fill="none" xmlns="http://www.w3.org/2000/svg">
    <path opacity="0.7"
          d="M99.3477 7.88672C99.3477 17.8477 87.1895 44.2881 62.873 87.208C37.6777 131.446 24.6406 159.425 23.7617 171.144C23.6152 172.608 23.3223 174.732 22.8828 177.516C22.5898 178.541 22.3701 179.054 22.2236 179.054C16.5107 179.054 12.4824 178.321 10.1387 176.856C3.98633 173.048 0.910156 166.456 0.910156 157.081C0.910156 146.974 6.5498 131.593 17.8291 110.938C22.6631 102.003 33.3564 84.6445 49.9092 58.8633C43.0244 62.5254 36.6523 64.3564 30.793 64.3564C21.7109 64.3564 17.1699 61.0605 17.1699 54.4688C17.1699 52.125 19.5869 49.1221 24.4209 45.46C28.8154 42.3838 36.2129 36.7441 46.6133 28.541C68.8789 9.9375 83.6006 0.635742 90.7783 0.635742C96.4912 0.635742 99.3477 3.05273 99.3477 7.88672Z"
          fill="white"/>
</svg>
