<svg width="25" height="23" viewBox="0 0 25 23" fill="none" xmlns="http://www.w3.org/2000/svg">
    <path fill-rule="evenodd" clip-rule="evenodd"
          d="M22.0214 0.0700289C21.6071 0.171905 21.2222 0.406708 20.9038 0.751836C20.7472 0.92152 18.2401 4.35612 15.3323 8.38426C12.4246 12.4124 10.0311 15.7129 10.0134 15.7188C9.99564 15.7247 8.69442 13.8503 7.12173 11.5537C5.16391 8.69455 4.1852 7.30899 4.01789 7.15939C3.12232 6.3587 1.87458 6.33461 0.966791 7.10052C-0.0294679 7.94104 -0.299673 9.57835 0.362642 10.7613C0.637295 11.2519 8.03118 21.9879 8.27386 22.2486C8.93593 22.9595 9.96538 23.194 10.8311 22.8311C11.3289 22.6224 11.7082 22.2749 12.0189 21.7428C12.1245 21.5618 15.0087 17.5447 18.428 12.8159C25.3139 3.29325 24.9344 3.86227 24.9938 2.97111C25.0563 2.03278 24.6427 1.07754 23.9431 0.544518C23.5792 0.267307 23.2489 0.115563 22.8609 0.0473165C22.4761 -0.0203814 22.3783 -0.0176932 22.0214 0.0700289Z"
          fill="white"/>
</svg>