<svg width="32" height="30" viewBox="0 0 32 30" fill="none" xmlns="http://www.w3.org/2000/svg">
    <path d="M31.9995 11.1614C31.9989 11.0878 31.99 11.0146 31.9729 10.9431L31.9666 10.9208C31.9593 10.8931 31.9507 10.8656 31.9409 10.8384C31.9282 10.8035 31.9134 10.7694 31.8966 10.7363C31.8924 10.7278 31.8886 10.7192 31.8841 10.7109C31.8691 10.6831 31.8527 10.656 31.835 10.6298C31.8323 10.6259 31.83 10.6216 31.8273 10.6177L31.8253 10.6144C31.8049 10.5856 31.783 10.5579 31.7597 10.5316C31.7548 10.526 31.7493 10.521 31.7445 10.5156C31.7247 10.494 31.704 10.4734 31.6824 10.4538C31.6751 10.4475 31.6676 10.4411 31.6602 10.435C31.6386 10.4166 31.6164 10.3994 31.5937 10.3835C31.5892 10.3803 31.5853 10.3766 31.5809 10.3736L16.522 0.160782C16.3674 0.0559434 16.1858 0 16 0C15.8142 0 15.6326 0.0559434 15.478 0.160782L0.419137 10.3736C0.414902 10.3764 0.411294 10.38 0.406902 10.383C0.383686 10.3993 0.36115 10.4167 0.339294 10.4353C0.332078 10.4414 0.324863 10.4473 0.317961 10.4535C0.296 10.4733 0.275137 10.4942 0.254902 10.5162C0.250196 10.5213 0.24502 10.5261 0.240471 10.5314C0.217061 10.5578 0.195119 10.5855 0.174745 10.6144L0.172706 10.6176L0.16502 10.6298C0.147336 10.656 0.13095 10.6831 0.115922 10.7109C0.111373 10.7192 0.107608 10.7278 0.103373 10.7363C0.0866229 10.7694 0.0718511 10.8035 0.0591374 10.8384C0.0492027 10.8656 0.0405751 10.8931 0.0332549 10.9208L0.0272941 10.9431C0.0101849 11.0146 0.00123683 11.0878 0.000627406 11.1614C0.000627406 11.1644 0 11.1671 0 11.1702V27.766C0.00066427 28.3582 0.23225 28.9261 0.64395 29.3449C1.05565 29.7637 1.61385 29.9993 2.19608 30H29.8039C30.3862 29.9993 30.9444 29.7637 31.3561 29.3449C31.7678 28.9261 31.9993 28.3582 32 27.766V11.1702C32 11.1671 31.9995 11.1644 31.9995 11.1614ZM1.88235 13.0287L11.6358 20.1027L1.88235 27.1114V13.0287ZM13.5609 21.0638H18.4391L28.2104 28.0851H3.7898L13.5609 21.0638ZM20.3641 20.1028L30.1176 13.0287V27.1112L20.3641 20.1028ZM16 2.10791L29.4011 11.1965L18.4367 19.1489H13.5633L2.5989 11.1967L16 2.10791Z"
          fill="white"/>
</svg>