<svg width="32" height="31" viewBox="0 0 32 31" fill="none" xmlns="http://www.w3.org/2000/svg">
    <path d="M16 15.2075C14.9153 15.2074 13.8684 15.5495 13.058 16.1689C12.2477 16.7883 11.7303 17.6418 11.6043 18.5673C11.4783 19.4928 11.7524 20.4259 12.3744 21.1892C12.9965 21.9525 13.9233 22.493 14.9787 22.7079V25.4434C14.9787 25.6761 15.0863 25.8992 15.2778 26.0638C15.4694 26.2283 15.7291 26.3208 16 26.3208C16.2709 26.3208 16.5306 26.2283 16.7221 26.0638C16.9137 25.8992 17.0213 25.6761 17.0213 25.4434V22.7079C18.0767 22.493 19.0035 21.9525 19.6255 21.1892C20.2476 20.4259 20.5217 19.4928 20.3957 18.5673C20.2696 17.6418 19.7523 16.7883 18.942 16.1689C18.1316 15.5495 17.0847 15.2074 16 15.2075ZM16 21.0566C15.5287 21.0566 15.068 20.9365 14.6761 20.7116C14.2842 20.4867 13.9788 20.1669 13.7984 19.7929C13.6181 19.4188 13.5709 19.0072 13.6628 18.6101C13.7548 18.2129 13.9817 17.8482 14.315 17.5619C14.6482 17.2756 15.0729 17.0806 15.5351 17.0016C15.9974 16.9226 16.4765 16.9632 16.9119 17.1181C17.3474 17.273 17.7195 17.5354 17.9814 17.8721C18.2432 18.2087 18.383 18.6045 18.383 19.0094C18.3823 19.5522 18.131 20.0725 17.6842 20.4563C17.2375 20.8401 16.6318 21.056 16 21.0566ZM29.617 10.5283H10.8936V6.14151C10.8936 5.56543 11.0257 4.99499 11.2823 4.46276C11.5389 3.93053 11.9151 3.44693 12.3892 3.03958C12.8634 2.63223 13.4263 2.3091 14.0459 2.08864C14.6654 1.86818 15.3294 1.75472 16 1.75472C16.6706 1.75472 17.3346 1.86818 17.9541 2.08864C18.5737 2.3091 19.1366 2.63223 19.6108 3.03958C20.0849 3.44693 20.4611 3.93053 20.7177 4.46276C20.9743 4.99499 21.1064 5.56543 21.1064 6.14151C21.1064 6.3742 21.214 6.59736 21.4055 6.7619C21.597 6.92643 21.8568 7.01887 22.1277 7.01887C22.3985 7.01887 22.6583 6.92643 22.8498 6.7619C23.0413 6.59736 23.1489 6.3742 23.1489 6.14151C23.1489 5.33499 22.964 4.53638 22.6048 3.79126C22.2455 3.04613 21.7189 2.3691 21.0551 1.79881C20.3912 1.22851 19.6031 0.776134 18.7358 0.467495C17.8684 0.158855 16.9388 0 16 0C15.0612 0 14.1316 0.158855 13.2642 0.467495C12.3969 0.776134 11.6088 1.22851 10.9449 1.79881C10.2811 2.3691 9.75451 3.04613 9.39524 3.79126C9.03598 4.53638 8.85106 5.33499 8.85106 6.14151V10.5283H2.38298C1.75119 10.5289 1.14549 10.7448 0.698754 11.1286C0.252015 11.5124 0.000720804 12.0327 0 12.5755V28.9528C0.000720804 29.4956 0.252015 30.0159 0.698754 30.3997C1.14549 30.7835 1.75119 30.9994 2.38298 31H29.617C30.2488 30.9994 30.8545 30.7835 31.3012 30.3997C31.748 30.0159 31.9993 29.4956 32 28.9528V12.5755C31.9993 12.0327 31.748 11.5124 31.3012 11.1286C30.8545 10.7448 30.2488 10.5289 29.617 10.5283ZM29.9574 28.9528C29.9574 29.0304 29.9215 29.1047 29.8576 29.1595C29.7938 29.2144 29.7073 29.2452 29.617 29.2453H2.38298C2.29272 29.2452 2.20618 29.2144 2.14236 29.1595C2.07854 29.1047 2.04264 29.0304 2.04255 28.9528V12.5755C2.04264 12.4979 2.07854 12.4236 2.14236 12.3688C2.20618 12.3139 2.29272 12.2831 2.38298 12.283H29.617C29.7073 12.2831 29.7938 12.3139 29.8576 12.3688C29.9215 12.4236 29.9574 12.4979 29.9574 12.5755V28.9528Z"
          fill="white"/>
</svg>