<svg width="86" height="157" viewBox="0 0 86 157" fill="none" xmlns="http://www.w3.org/2000/svg">
    <path fill-rule="evenodd" clip-rule="evenodd"
          d="M85.5067 2.37309C85.7422 3.08169 85.7277 3.54168 85.4746 3.3954C85.2221 3.24897 84.3886 3.27028 83.6226 3.44223C81.5177 3.91498 73.6302 4.99419 68.4771 5.51447C67.4139 5.62178 65.6616 5.88902 64.583 6.10771C63.5046 6.32702 62.5214 6.44407 62.398 6.36792C62.2746 6.29177 60.5686 6.53023 58.6069 6.89755C53.4579 7.86274 52.9283 7.98665 50.077 8.89509C46.7119 9.96738 45.3037 10.4131 43.1592 11.0834C42.1888 11.387 41.3365 11.7292 41.2659 11.8436C41.1953 11.9579 40.8326 12.1462 40.46 12.2623C35.2695 13.8798 26.2628 18.7784 23.6809 21.3887C23.1837 21.8906 22.3466 22.5178 21.8202 22.7818C21.2941 23.0459 19.5369 24.7723 17.9161 26.6183C16.295 28.464 14.826 30.0462 14.6517 30.1341C14.4773 30.2219 12.9531 32.514 11.2641 35.2267C8.36497 39.8845 6.19254 44.9928 5.54833 48.667C4.54966 54.3641 4.03755 65.3524 4.62777 68.4211C4.75268 69.0713 4.97178 70.6802 5.11476 71.9961C5.45635 75.1437 5.90084 76.9781 7.5329 81.9756C8.27879 84.2607 8.80774 86.263 8.7076 86.4252C8.6077 86.5871 8.68274 86.8163 8.8744 86.9346C9.06607 87.0529 9.82306 88.5168 10.5567 90.1873C11.2903 91.8578 12.0946 93.6094 12.3447 94.0795C12.5944 94.5494 13.0206 95.6841 13.2908 96.6007C13.5615 97.5176 14.1847 98.861 14.6752 99.5868C16.0919 101.68 17.4929 104.441 17.5027 105.156C17.5075 105.517 17.8169 106.001 18.1905 106.232C18.5641 106.462 19.2486 107.506 19.7118 108.55C20.1751 109.595 20.917 110.995 21.361 111.66C21.8048 112.326 22.3284 113.177 22.5247 113.551C23.2415 114.919 26.8596 120.44 27.1611 120.626C27.3318 120.731 27.9075 121.79 28.4403 122.978C28.9731 124.167 29.6088 125.268 29.8531 125.426C30.0974 125.584 31.6917 127.979 33.3959 130.748L36.4944 135.783L37.6714 135.328C38.3189 135.078 39.2095 134.509 39.6504 134.065C40.8496 132.856 42.3125 132.404 42.8285 133.083C43.0756 133.409 43.2672 134.721 43.2543 136C43.2415 137.279 43.3509 138.407 43.4981 138.507C43.6446 138.606 44.6684 142.704 45.7722 147.613C47.0532 153.307 47.5477 156.456 47.1392 156.312C46.7869 156.188 45.8574 155.338 45.0731 154.422C43.3744 152.439 39.8413 149.402 36.3644 146.935C32.7947 144.401 30.2152 142.24 30.2162 141.783C30.2168 141.568 30.9761 140.719 31.9041 139.897C32.8318 139.075 33.6086 138.378 33.6302 138.348C33.748 138.184 31.9173 135.024 31.5865 134.82C31.2422 134.608 27.0448 127.992 25.721 125.576C25.453 125.087 23.9997 122.737 22.4911 120.352C20.9825 117.969 19.7326 115.84 19.7131 115.622C19.6941 115.405 18.6946 113.61 17.4924 111.635C15.2801 108 13.3291 104.427 10.8203 99.4168C10.0619 97.903 9.23904 96.5391 8.99111 96.3861C8.74319 96.2331 8.60032 95.7932 8.67355 95.4085C8.74715 95.024 8.57465 94.5658 8.29072 94.3906C8.00679 94.2154 7.67852 93.5439 7.56149 92.8985C7.44445 92.253 7.12144 91.5847 6.84388 91.4135C6.56633 91.2422 6.4293 90.9565 6.53898 90.7788C6.64867 90.601 5.99425 88.6141 5.08443 86.3639C3.5302 82.5201 2.127 77.5746 1.50113 73.7362C0.594151 68.1789 0.183219 59.4358 0.651002 55.6522C0.774134 54.6579 0.959821 53.1384 1.06415 52.2753C1.53823 48.3564 3.43055 41.9127 5.15954 38.3296C6.89048 34.7424 8.24256 32.6654 11.1166 29.1755C13.9555 25.7291 13.9993 25.6806 16.7555 23.0153C17.5697 22.228 18.5842 21.2126 19.0101 20.759C19.4361 20.3054 20.0398 19.74 20.3523 19.503C20.6645 19.2657 21.0012 19.0045 21.1001 18.9223C21.1994 18.8402 21.8078 18.3949 22.4523 17.9329C23.0968 17.4708 24.0122 16.7992 24.4867 16.4406C24.9612 16.0821 26.5793 15.2047 28.0825 14.4909C29.5857 13.7771 31.4811 12.7509 32.2945 12.2107C33.108 11.6706 34.799 10.9268 36.0519 10.5582C37.3047 10.1891 38.4386 9.71116 38.5718 9.4953C38.705 9.27944 39.5235 8.99199 40.3901 8.85665C41.2567 8.7213 42.5472 8.33117 43.2578 7.9896C44.7527 7.27071 52.9052 5.32424 58.6843 4.30552C62.8242 3.5758 69.7477 2.69841 78.2641 1.82382C81.001 1.54304 83.5125 1.17426 83.8452 1.00439C84.6687 0.583958 85.0054 0.861584 85.5067 2.37309Z"
          fill="white"/>
</svg>