<svg width="20" height="20" viewBox="0 0 20 20" fill="none" xmlns="http://www.w3.org/2000/svg">
    <path d="M17.5 3.75H12.5C12.0146 3.75004 11.536 3.86323 11.102 4.0806C10.668 4.29796 10.2907 4.61351 10 5.00219C9.7093 4.61351 9.33198 4.29796 8.89801 4.0806C8.46404 3.86323 7.98536 3.75004 7.5 3.75H2.5C2.16859 3.75037 1.85087 3.88219 1.61653 4.11653C1.38219 4.35087 1.25037 4.66859 1.25 5V15C1.25037 15.3314 1.38219 15.6491 1.61653 15.8835C1.85087 16.1178 2.16859 16.2496 2.5 16.25H7.5C7.99711 16.2506 8.4737 16.4483 8.82521 16.7998C9.17672 17.1513 9.37444 17.6279 9.375 18.125C9.375 18.2908 9.44085 18.4497 9.55806 18.5669C9.67527 18.6842 9.83424 18.75 10 18.75C10.1658 18.75 10.3247 18.6842 10.4419 18.5669C10.5592 18.4497 10.625 18.2908 10.625 18.125C10.6256 17.6279 10.8233 17.1513 11.1748 16.7998C11.5263 16.4483 12.0029 16.2506 12.5 16.25H17.5C17.8314 16.2496 18.1491 16.1178 18.3835 15.8835C18.6178 15.6491 18.7496 15.3314 18.75 15V5C18.7496 4.66859 18.6178 4.35087 18.3835 4.11653C18.1491 3.88219 17.8314 3.75037 17.5 3.75ZM7.5 15L2.5 15.0008V5H7.5C7.99711 5.00056 8.4737 5.19828 8.82521 5.54979C9.17672 5.9013 9.37444 6.37789 9.375 6.875V15.6265C8.8348 15.2192 8.17651 14.9993 7.5 15ZM17.5 15H12.5C11.8235 14.9993 11.1651 15.2193 10.625 15.6267V6.875C10.6256 6.37789 10.8233 5.9013 11.1748 5.54979C11.5263 5.19828 12.0029 5.00056 12.5 5H17.5V15Z"
          fill="#FC411E"/>
</svg>