<svg width="25" height="25" viewBox="0 0 25 25" fill="none" xmlns="http://www.w3.org/2000/svg">
    <path d="M12.5 0C14.9723 0 17.389 0.733112 19.4446 2.10663C21.5002 3.48015 23.1024 5.43238 24.0485 7.71646C24.9946 10.0005 25.2421 12.5139 24.7598 14.9386C24.2775 17.3634 23.087 19.5907 21.3388 21.3388C19.5907 23.087 17.3634 24.2775 14.9386 24.7598C12.5139 25.2421 10.0005 24.9946 7.71646 24.0485C5.43238 23.1024 3.48015 21.5002 2.10663 19.4446C0.733112 17.389 0 14.9723 0 12.5C0.0037384 9.18594 1.3219 6.00869 3.66529 3.66529C6.00869 1.3219 9.18594 0.00373855 12.5 0ZM12.5 24C14.7745 24 16.9979 23.3255 18.8891 22.0619C20.7802 20.7983 22.2542 19.0022 23.1246 16.9009C23.995 14.7995 24.2228 12.4872 23.779 10.2565C23.3353 8.02568 22.24 5.97657 20.6317 4.36827C19.0234 2.75997 16.9743 1.6647 14.7435 1.22097C12.5128 0.777239 10.2005 1.00498 8.09914 1.87538C5.99779 2.74579 4.20173 4.21978 2.9381 6.11094C1.67446 8.0021 1 10.2255 1 12.5C1.00344 15.5489 2.21615 18.472 4.37207 20.6279C6.52799 22.7838 9.45106 23.9966 12.5 24ZM7 12.5C7 12.6326 7.05268 12.7598 7.14644 12.8536C7.24021 12.9473 7.36739 13 7.5 13H16.2929L12.9037 16.3891C12.81 16.4829 12.7573 16.6101 12.7573 16.7427C12.7573 16.8753 12.81 17.0025 12.9037 17.0962C12.9975 17.19 13.1247 17.2427 13.2573 17.2427C13.3899 17.2427 13.5171 17.19 13.6109 17.0962L17.8535 12.8535C17.8999 12.8071 17.9368 12.752 17.9619 12.6913C17.987 12.6307 17.9999 12.5656 17.9999 12.5C17.9999 12.4343 17.987 12.3693 17.9619 12.3087C17.9368 12.248 17.8999 12.1929 17.8535 12.1465L13.611 7.90375C13.5172 7.80996 13.39 7.75727 13.2574 7.75725C13.1248 7.75724 12.9976 7.80992 12.9038 7.90369C12.81 7.99746 12.7573 8.12464 12.7573 8.25727C12.7573 8.38989 12.81 8.51709 12.9037 8.61087L16.2929 12H7.5C7.36739 12 7.24021 12.0527 7.14644 12.1464C7.05268 12.2402 7 12.3674 7 12.5Z" fill="#FF7E66"/>
</svg>
