<svg width="30" height="30" viewBox="0 0 30 30" fill="none" xmlns="http://www.w3.org/2000/svg">
    <circle cx="15" cy="15" r="15" fill="#FDA59C"/>
    <path fill-rule="evenodd" clip-rule="evenodd" d="M20.2128 9.03654C19.9642 9.08969 19.7333 9.2122 19.5423 9.39226C19.4483 9.48079 17.944 11.2728 16.1994 13.3744C14.4548 15.476 13.0186 17.198 13.008 17.2011C12.9974 17.2042 12.2167 16.2263 11.273 15.028C10.0983 13.5363 9.51112 12.8134 9.41073 12.7353C8.87339 12.3176 8.12475 12.305 7.58007 12.7046C6.98232 13.1432 6.8202 13.9974 7.21759 14.6146C7.38238 14.8706 11.8187 20.472 11.9643 20.6079C12.3616 20.9789 12.9792 21.1012 13.4987 20.9119C13.7974 20.803 14.0249 20.6217 14.2113 20.3441C14.2747 20.2496 16.0052 18.1538 18.0568 15.6866C22.1883 10.7182 21.9606 11.0151 21.9963 10.5501C22.0338 10.0606 21.7856 9.5622 21.3658 9.2841C21.1475 9.13946 20.9494 9.06029 20.7165 9.02469C20.4857 8.98937 20.427 8.99077 20.2128 9.03654Z" fill="white"/>
</svg>