<svg width="33" height="23" viewBox="0 0 33 23" fill="none" xmlns="http://www.w3.org/2000/svg">
    <path d="M30.2757 0.571411H2.72543C2.11674 0.572062 1.53318 0.802551 1.10277 1.21231C0.672359 1.62207 0.430255 2.17764 0.429572 2.75713V7.2291C0.429572 7.23456 0.428711 7.23962 0.428711 7.24508C0.428711 7.25054 0.429572 7.2556 0.429572 7.26093V20.2428C0.430255 20.8223 0.672359 21.3779 1.10277 21.7877C1.53318 22.1974 2.11674 22.4279 2.72543 22.4286H30.2757C30.8844 22.4279 31.468 22.1974 31.8984 21.7877C32.3288 21.3779 32.5709 20.8223 32.5716 20.2428V2.75713C32.5709 2.17764 32.3288 1.62207 31.8984 1.21231C31.468 0.802551 30.8844 0.572062 30.2757 0.571411ZM30.2757 2.75713L30.276 6.15222H2.72543V2.75713H30.2757ZM30.2757 20.2428H2.72543V8.33794H30.2761L30.2771 20.2428H30.2757ZM27.979 16.9643C27.979 17.2541 27.8581 17.5321 27.6428 17.737C27.4275 17.942 27.1355 18.0571 26.8311 18.0571H22.2394C21.9349 18.0571 21.6429 17.942 21.4276 17.737C21.2124 17.5321 21.0914 17.2541 21.0914 16.9643C21.0914 16.6744 21.2124 16.3965 21.4276 16.1915C21.6429 15.9866 21.9349 15.8714 22.2394 15.8714H26.8311C27.1355 15.8714 27.4275 15.9866 27.6428 16.1915C27.8581 16.3965 27.979 16.6744 27.979 16.9643ZM18.7956 16.9643C18.7956 17.2541 18.6746 17.5321 18.4593 17.737C18.2441 17.942 17.9521 18.0571 17.6476 18.0571H15.3518C15.0473 18.0571 14.7554 17.942 14.5401 17.737C14.3248 17.5321 14.2039 17.2541 14.2039 16.9643C14.2039 16.6744 14.3248 16.3965 14.5401 16.1915C14.7554 15.9866 15.0473 15.8714 15.3518 15.8714H17.6476C17.9521 15.8714 18.2441 15.9866 18.4593 16.1915C18.6746 16.3965 18.7956 16.6744 18.7956 16.9643Z"
          fill="white"/>
</svg>