<svg width="31" height="31" viewBox="0 0 31 31" fill="none" xmlns="http://www.w3.org/2000/svg">
    <path d="M19.0031 2.00795C19.0675 1.76783 19.2245 1.56306 19.4397 1.43862C19.6549 1.31417 19.9107 1.28021 20.1509 1.3442C22.4291 1.95683 24.5063 3.15735 26.1744 4.8255C27.8426 6.49365 29.043 8.57086 29.6556 10.849C29.6882 10.9682 29.6969 11.0927 29.6812 11.2153C29.6655 11.3378 29.6258 11.4561 29.5642 11.5632C29.5027 11.6704 29.4206 11.7643 29.3226 11.8396C29.2246 11.9149 29.1127 11.9701 28.9933 12.002C28.874 12.0339 28.7495 12.0419 28.627 12.0255C28.5045 12.0091 28.3865 11.9687 28.2797 11.9065C28.1729 11.8443 28.0794 11.7617 28.0047 11.6633C27.93 11.5649 27.8754 11.4527 27.8442 11.3331C27.3172 9.37311 26.2843 7.58601 24.8491 6.15084C23.414 4.71568 21.6269 3.68283 19.6669 3.15577C19.5479 3.12399 19.4364 3.06909 19.3387 2.99421C19.2409 2.91933 19.1589 2.82592 19.0973 2.71934C19.0356 2.61275 18.9956 2.49507 18.9794 2.37301C18.9633 2.25095 18.9713 2.1269 19.0031 2.00795ZM18.3725 7.98655C19.4849 8.28561 20.4992 8.87177 21.3137 9.68629C22.1282 10.5008 22.7144 11.5151 23.0134 12.6275C23.0776 12.8677 23.2346 13.0726 23.4499 13.1971C23.6651 13.3216 23.921 13.3554 24.1613 13.2912C24.4015 13.227 24.6064 13.0701 24.7308 12.8548C24.8553 12.6395 24.8892 12.3836 24.825 12.1434C24.4403 10.7128 23.6865 9.40848 22.639 8.36098C21.5915 7.31348 20.2871 6.55964 18.8566 6.17498C18.7376 6.1432 18.6136 6.13516 18.4915 6.15131C18.3695 6.16747 18.2518 6.2075 18.1452 6.26914C17.9299 6.39362 17.7729 6.59851 17.7088 6.83873C17.6446 7.07896 17.6784 7.33485 17.8029 7.55011C17.9274 7.76536 18.1323 7.92236 18.3725 7.98655ZM30.8706 23.317C30.6088 25.3527 29.6148 27.2235 28.0744 28.5798C26.534 29.9362 24.5525 30.6854 22.5 30.6875C10.2658 30.6875 0.3125 20.7342 0.3125 8.49998C0.31459 6.44754 1.06377 4.46605 2.4201 2.92564C3.77643 1.38522 5.64715 0.391242 7.68281 0.129359C8.15277 0.0727899 8.6284 0.169874 9.03859 0.406091C9.44879 0.642309 9.77149 1.00497 9.95844 1.43983L13.0977 8.76451C13.2402 9.09601 13.2983 9.45767 13.2669 9.81714C13.2354 10.1766 13.1153 10.5227 12.9173 10.8244L10.318 14.7961C10.2886 14.8388 10.2707 14.8884 10.2662 14.9401C10.2616 14.9917 10.2705 15.0437 10.2919 15.0909C11.498 17.5515 13.4931 19.5375 15.9591 20.7325C16.0066 20.7537 16.0588 20.7623 16.1106 20.7573C16.1623 20.7523 16.212 20.734 16.2545 20.704L20.1663 18.0956C20.4688 17.8931 20.8172 17.7695 21.1797 17.7362C21.5423 17.7029 21.9074 17.761 22.2417 17.905L29.56 21.0415C29.9949 21.2284 30.3576 21.5511 30.5938 21.9613C30.8301 22.3714 30.9272 22.8471 30.8706 23.317ZM29.0103 23.082C29.0173 23.0158 29.0026 22.9492 28.9685 22.892C28.9345 22.8348 28.8828 22.7902 28.8213 22.7648L21.5031 19.6284C21.4553 19.608 21.4032 19.5998 21.3514 19.6045C21.2996 19.6092 21.2499 19.6268 21.2066 19.6556L17.2948 22.2642C16.9806 22.4744 16.6172 22.5994 16.2401 22.6269C15.863 22.6544 15.4853 22.5835 15.1439 22.4211C12.2995 21.0426 9.99833 18.7519 8.60703 15.9137C8.44393 15.5743 8.37131 15.1986 8.39622 14.8229C8.42113 14.4471 8.54273 14.0842 8.74922 13.7694L11.3484 9.79748C11.3768 9.75435 11.3939 9.70487 11.3984 9.65347C11.4029 9.60207 11.3946 9.55035 11.3742 9.50295L8.23516 2.17858C8.21185 2.12278 8.1728 2.07498 8.12277 2.04101C8.07274 2.00705 8.0139 1.98839 7.95344 1.98733C7.94158 1.98736 7.92973 1.98814 7.91797 1.98967C6.33495 2.19352 4.88028 2.96671 3.82572 4.16479C2.77115 5.36287 2.18882 6.90389 2.1875 8.49998C2.19358 13.8853 4.33559 19.0484 8.14361 22.8564C11.9516 26.6644 17.1147 28.8064 22.5 28.8125C24.0961 28.8112 25.6371 28.2288 26.8352 27.1743C28.0333 26.1197 28.8065 24.665 29.0103 23.082Z"
          fill="white"/>
</svg>