<svg width="60" height="93" viewBox="0 0 60 93" fill="none" xmlns="http://www.w3.org/2000/svg">
    <path fill-rule="evenodd" clip-rule="evenodd" d="M30.4629 92.4906C30.8134 92.1974 30.9537 91.9532 30.7748 91.948C30.5962 91.9431 30.1687 91.6642 29.8249 91.3286C28.8802 90.4061 25.1176 87.3098 22.6 85.3832C22.0805 84.9857 21.2535 84.2835 20.7618 83.8231C20.2705 83.3624 19.7958 82.9856 19.707 82.9856C19.6182 82.9856 18.806 82.3132 17.9021 81.4917C15.5296 79.3347 15.2935 79.1 14.1 77.7109C12.6915 76.0713 12.101 75.3867 11.1992 74.3487C10.7912 73.8788 10.4572 73.4267 10.4572 73.3445C10.4572 73.2623 10.3287 73.0477 10.172 72.8676C7.9876 70.3576 4.86987 64.9131 4.36392 62.7243C4.26624 62.3032 4.03174 61.7077 3.84232 61.4011C3.65316 61.0945 3.29266 59.631 3.04171 58.1491C2.79048 56.6672 2.53387 55.3713 2.47126 55.2696C2.40866 55.1678 2.35146 53.4846 2.34363 51.5295C2.33068 48.1727 2.84121 44.8149 3.68689 42.6948C4.99832 39.4075 8.26446 33.5215 9.55861 32.1134C9.83277 31.815 10.4642 31.0477 10.9618 30.4084C12.1518 28.8793 12.9732 28.067 15.4303 25.9892C16.5537 25.0391 17.473 24.1665 17.473 24.0498C17.473 23.9334 17.5858 23.8382 17.7237 23.8382C17.8616 23.8382 18.7267 23.3192 19.646 22.6851C20.5654 22.051 21.5476 21.3974 21.8291 21.233C22.1102 21.0686 22.6971 20.6147 23.1327 20.2242C23.5684 19.8338 24.3251 19.3346 24.814 19.1143C26.2253 18.4794 27.8427 17.4923 28.0777 17.1231C28.1965 16.9364 28.5133 16.7839 28.782 16.7839C29.0508 16.7839 29.7429 16.4605 30.3201 16.0655C30.8976 15.6702 31.7341 15.1799 32.1793 14.9761C32.6245 14.7721 33.171 14.4973 33.3936 14.3654C34.2069 13.8835 37.867 12.1715 38.084 12.1715C38.2067 12.1715 38.8471 11.8053 39.5068 11.3576C40.1666 10.9099 40.852 10.5406 41.0301 10.5368C41.2082 10.533 42.8089 9.79831 44.5871 8.90404L47.8203 7.27803L48.2871 7.89339C48.544 8.23172 48.8252 8.81396 48.9121 9.18703C49.1482 10.2018 49.7651 10.9072 50.2524 10.7192C50.4858 10.6291 51.0077 10.0072 51.4122 9.33707C51.8167 8.66719 52.2363 8.11506 52.345 8.11044C52.4535 8.10556 54.3043 6.30102 56.4576 4.09982C58.9561 1.54617 60.226 0.065857 59.9669 0.0094223C59.7435 -0.0391388 58.9858 0.104927 58.2828 0.329582C56.7601 0.816322 53.9427 1.26264 51.338 1.43005C48.6636 1.60206 46.6247 1.8986 46.4781 2.1371C46.4093 2.24915 46.5321 2.93505 46.7512 3.66137C46.9703 4.38741 47.1508 5.00004 47.1525 5.02257C47.1614 5.14548 45.1915 6.20253 44.9535 6.20253C44.7058 6.20253 40.3919 8.29846 38.9253 9.13114C38.6285 9.29963 37.1155 10.0566 35.5628 10.8133C34.0104 11.5697 32.6747 12.2765 32.5946 12.3837C32.5147 12.4909 31.417 13.104 30.1555 13.7463C27.8343 14.9278 25.6689 16.1615 22.7508 17.9642C21.869 18.5087 21.0017 18.9545 20.8234 18.9545C20.645 18.9545 20.4291 19.1376 20.3436 19.3615C20.2583 19.5853 20.0211 19.7684 19.8169 19.7684C19.6126 19.7684 19.2256 20.0126 18.9571 20.3111C18.6887 20.6095 18.3055 20.8537 18.1058 20.8537C17.9061 20.8537 17.7429 20.9584 17.7429 21.0862C17.7429 21.214 16.7631 22.0383 15.5655 22.9176C13.5199 24.4196 11.1987 26.5438 9.63849 28.3413C7.37912 30.9435 4.35394 35.3638 3.38117 37.4841C3.12563 38.0414 2.73382 38.8923 2.51066 39.3752C1.49768 41.568 0.411846 45.5312 0.160626 47.9524C-0.0908662 50.3764 -0.0541689 51.8922 0.321178 54.6328C0.69221 57.3395 0.699489 57.3788 1.27856 59.6522C1.44965 60.3237 1.65176 61.1784 1.72785 61.5514C1.80395 61.9245 1.93671 62.4129 2.02333 62.6367C2.10968 62.8605 2.20116 63.1047 2.22625 63.1793C2.25161 63.2539 2.42538 63.6813 2.61265 64.1289C2.79992 64.5766 3.06087 65.2205 3.19282 65.5596C3.32477 65.8988 3.88576 66.8755 4.43947 67.7302C4.99319 68.5848 5.65079 69.7281 5.90093 70.2708C6.15107 70.8134 6.79302 71.744 7.3273 72.3385C7.86132 72.9332 8.29846 73.5464 8.29846 73.7016C8.29846 73.8568 8.63252 74.2695 9.04052 74.6184C9.44851 74.9673 9.99548 75.5851 10.2559 75.9912C10.8037 76.8459 14.4254 80.4788 17.109 82.8662C19.0313 84.5763 22.3566 87.2577 26.5127 90.4495C27.8484 91.4751 29.0384 92.4741 29.1571 92.6694C29.451 93.1529 29.7157 93.1166 30.4629 92.4906Z" fill="white"/>
</svg>