<svg width="27" height="26" viewBox="0 0 27 26" fill="none" xmlns="http://www.w3.org/2000/svg">
    <path d="M12.6786 11.9536V1.56293C12.6786 1.34537 12.765 1.13672 12.9189 0.982879C13.0727 0.829041 13.2813 0.742615 13.4989 0.742615C13.7165 0.742615 13.9251 0.829041 14.079 0.982879C14.2328 1.13672 14.3192 1.34537 14.3192 1.56293V11.9536C14.3192 12.1711 14.2328 12.3798 14.079 12.5336C13.9251 12.6874 13.7165 12.7739 13.4989 12.7739C13.2813 12.7739 13.0727 12.6874 12.9189 12.5336C12.765 12.3798 12.6786 12.1711 12.6786 11.9536ZM20.5108 1.72754C20.4206 1.66818 20.3195 1.62723 20.2134 1.60703C20.1073 1.58683 19.9983 1.58778 19.8925 1.60982C19.7868 1.63187 19.6865 1.67458 19.5973 1.7355C19.5081 1.79643 19.4318 1.87436 19.3728 1.96483C19.3138 2.05531 19.2733 2.15654 19.2535 2.26272C19.2338 2.3689 19.2352 2.47794 19.2576 2.58358C19.2801 2.68922 19.3232 2.78938 19.3845 2.87832C19.4458 2.96725 19.524 3.04321 19.6147 3.10183C21.6404 4.42001 23.1858 6.35749 24.0207 8.62549C24.8556 10.8935 24.9353 13.3706 24.2478 15.6875C23.5603 18.0044 22.1425 20.0372 20.2057 21.4828C18.2689 22.9283 15.9168 23.7093 13.5 23.7093C11.0832 23.7093 8.73113 22.9283 6.79433 21.4828C4.85753 20.0372 3.43972 18.0044 2.75223 15.6875C2.06474 13.3706 2.14437 10.8935 2.97926 8.62549C3.81416 6.35749 5.35961 4.42001 7.38526 3.10183C7.4755 3.043 7.55328 2.96696 7.61414 2.87807C7.675 2.78918 7.71776 2.68917 7.73997 2.58375C7.76218 2.47833 7.76341 2.36957 7.74359 2.26368C7.72377 2.15779 7.68328 2.05684 7.62444 1.96659C7.56561 1.87634 7.48957 1.79857 7.40068 1.73771C7.31179 1.67685 7.21178 1.63409 7.10636 1.61188C7.00094 1.58967 6.89218 1.58844 6.78629 1.60826C6.6804 1.62808 6.57945 1.66856 6.4892 1.7274C4.16739 3.23868 2.39608 5.45976 1.43927 8.05963C0.482459 10.6595 0.391375 13.4989 1.17959 16.1548C1.96781 18.8106 3.59312 21.1407 5.8133 22.7976C8.03349 24.4546 10.7297 25.3498 13.5 25.3498C16.2703 25.3498 18.9665 24.4546 21.1867 22.7976C23.4069 21.1407 25.0322 18.8106 25.8204 16.1548C26.6086 13.4989 26.5175 10.6595 25.5607 8.05963C24.6039 5.45976 22.8326 3.23868 20.5108 1.7274V1.72754Z"
          fill="#FF7E66"/>
</svg>